<?xml version="1.0" encoding="utf-8"?>
<!DOCTYPE svg PUBLIC "-//W3C//DTD SVG 1.0//EN" "http://www.w3.org/TR/2001/REC-SVG-20010904/DTD/svg10.dtd">
<svg version="1.0" xmlns="http://www.w3.org/2000/svg" width="195px" height="186px" viewBox="0 0 195 186" preserveAspectRatio="xMidYMid meet">
 <g fill="#010101">
  <path d="M0 93 l0 -93 97.50 0 97.50 0 0 93 0 93 -97.50 0 -97.50 0 0 -93z m81.05 79 c13.60 -1 21.30 -2.85 30.70 -7.45 10.15 -4.95 17.65 -11.05 24.05 -19.55 9.05 -12.10 13.35 -24.45 13.35 -38.50 0.05 -9.50 -0.95 -14.75 -4.20 -22.35 l-0.90 -2.15 -8.95 0 c-4.90 0 -9.05 0.15 -9.25 0.30 -0.15 0.20 0 0.80 0.40 1.40 1.55 2.35 4.25 11.75 4.80 16.75 2.90 25.15 -14.70 47.45 -41.80 53.05 -4.75 1 -6.40 1.05 -35.25 0.95 l-30.25 -0.10 -0.15 8.45 c-0.05 4.60 0 8.70 0.10 9.05 0.30 0.80 46.75 0.90 57.35 0.15z m90 -1.75 c1.20 -0.85 2.85 -2.50 3.70 -3.70 1.30 -1.85 1.50 -2.55 1.50 -5.45 -0.05 -3.95 -1.20 -6.60 -4.05 -9.10 -2.60 -2.25 -4.65 -3 -8.20 -3 -3.65 0 -5.70 0.80 -8.45 3.25 -4.60 4.15 -4.55 12.80 0.05 17.10 2.20 2.05 4.35 2.65 9 2.55 3.90 -0.15 4.55 -0.30 6.45 -1.65z m-82.85 -32.90 c15 -3.60 25.80 -16.95 25.80 -31.90 0 -7.30 -1.75 -11.35 -7.55 -17.75 -2.70 -3 -4.95 -7.15 -4.95 -9.20 0 -4.45 3.65 -9.05 8.65 -10.95 2.85 -1.05 3.40 -1.05 34.85 -1.05 l32 0 0 -9.05 0 -9.05 -32.85 0.20 -32.90 0.25 -5.25 1.75 c-7 2.40 -9.50 3.90 -14.05 8.40 -5.65 5.55 -8.45 11.90 -8.45 19.10 0 6.55 2.30 12.05 7.85 18.65 1.80 2.20 3.70 4.90 4.20 6 2.70 5.90 -0.80 12.60 -8.55 16.40 l-3.25 1.60 -30.10 0.15 -30.15 0.15 0 8.75 0 8.75 30.65 -0.20 c26.35 -0.15 31.10 -0.30 34.05 -1z m-13 -32.80 c0.15 -0.25 -0.80 -2.20 -2.10 -4.40 -1.30 -2.15 -3.15 -5.85 -4.10 -8.15 -1.75 -4.25 -1.75 -4.30 -1.75 -12 0 -7.10 0.15 -8.10 1.45 -12.25 5 -15.95 15.80 -26.70 32.05 -31.95 6.80 -2.20 8.75 -2.30 43 -2.30 l32.70 0 0.30 -1.60 c0.15 -0.90 0.25 -5 0.15 -9.15 l-0.15 -7.50 -28.55 -0.10 c-15.70 -0.10 -31 0.10 -34.05 0.35 -19.85 1.75 -35.30 8.60 -47.50 21.05 -5.95 6.05 -8.20 9.40 -11.95 17.70 -3.15 7 -5.15 16.80 -5.20 25.25 0 8 2.50 19.10 5.30 23.55 l1.20 1.95 9.50 0 c5.20 0 9.55 -0.20 9.70 -0.45z m-34.40 -67.75 c7 -3.25 8.80 -12.20 3.70 -18.40 -2.15 -2.60 -5.15 -3.90 -9.05 -3.90 -2.75 0 -3.60 0.25 -5.60 1.50 -3 1.90 -5.15 4.90 -5.90 8.25 -0.50 2.30 -0.45 3.05 0.25 5.30 1.20 3.60 3.10 5.90 6.05 7.25 3.35 1.60 7.15 1.60 10.55 0z"/>
 </g>
 <g fill="#83b5b1">
  <path d="M23.70 171.85 c-0.10 -0.35 -0.15 -4.45 -0.10 -9.05 l0.15 -8.45 30.25 0.10 c28.85 0.10 30.50 0.05 35.25 -0.95 9.60 -1.95 17.60 -5.75 24.55 -11.55 15.90 -13.30 21.40 -32.45 14.90 -51.90 -0.95 -2.90 -2.05 -5.80 -2.45 -6.35 -0.40 -0.60 -0.55 -1.20 -0.40 -1.40 0.20 -0.15 4.35 -0.30 9.25 -0.30 l8.95 0 0.90 2.15 c3.25 7.60 4.25 12.85 4.20 22.35 0 14.05 -4.30 26.40 -13.35 38.50 -6.40 8.50 -13.90 14.60 -24.05 19.55 -14.05 6.85 -23.05 8 -62.85 7.95 -19.35 -0.05 -25 -0.20 -25.20 -0.65z"/>
  <path d="M158.50 171.25 c-7.05 -3.20 -8.70 -13.80 -2.95 -19 2.75 -2.45 4.80 -3.25 8.45 -3.25 3.55 0 5.60 0.75 8.20 3 2.85 2.50 4 5.15 4.05 9.10 0 2.90 -0.20 3.60 -1.50 5.45 -0.85 1.20 -2.50 2.85 -3.70 3.70 -1.90 1.35 -2.55 1.50 -6.45 1.65 -3.10 0.05 -4.85 -0.10 -6.10 -0.65z"/>
  <path d="M54.80 103.05 c-2.80 -4.45 -5.30 -15.55 -5.30 -23.55 0.05 -8.45 2.05 -18.25 5.20 -25.25 3.75 -8.30 6 -11.65 11.95 -17.70 9.95 -10.15 22.05 -16.60 36.80 -19.50 5.35 -1.10 16.05 -2.20 16.50 -1.75 0.15 0.10 -0.15 1.30 -0.65 2.60 -0.50 1.30 -1.80 5.15 -2.85 8.55 -1.05 3.40 -2.10 6.35 -2.30 6.55 -0.20 0.20 -2.35 0.60 -4.75 0.95 -10.70 1.45 -20.60 6.05 -28.15 13.10 -5.85 5.50 -9.85 12.10 -12.55 20.70 -1.30 4.15 -1.45 5.15 -1.45 12.25 0 7.70 0 7.75 1.75 12 0.95 2.30 2.80 6 4.10 8.15 1.30 2.20 2.25 4.15 2.10 4.40 -0.15 0.25 -4.50 0.45 -9.70 0.45 l-9.50 0 -1.20 -1.95z"/>
  <path d="M30.25 36.80 c-2.95 -1.35 -4.85 -3.65 -6.05 -7.25 -0.70 -2.25 -0.75 -3 -0.25 -5.30 0.75 -3.35 2.90 -6.35 5.90 -8.25 4.50 -2.85 11.25 -1.75 14.65 2.40 8.25 10.05 -2.45 23.90 -14.25 18.40z"/>
 </g>
 <g fill="#ff906c">
  <path d="M23.50 129.80 l0 -8.75 30.15 -0.15 30.10 -0.15 3.25 -1.60 c7.75 -3.80 11.25 -10.50 8.55 -16.40 -0.50 -1.10 -2.40 -3.80 -4.20 -6 -5.55 -6.60 -7.85 -12.10 -7.85 -18.65 0 -7.20 2.80 -13.55 8.45 -19.10 4.55 -4.50 7.05 -6 14.05 -8.40 l5.25 -1.75 32.90 -0.25 32.85 -0.20 0 9.05 0 9.05 -32 0 c-31.45 0 -32 0 -34.85 1.05 -5 1.90 -8.65 6.50 -8.65 10.95 0 2.05 2.25 6.20 4.95 9.20 5.80 6.40 7.55 10.45 7.55 17.75 0 12.40 -7.60 24.20 -19.20 29.60 -6.55 3.05 -7.10 3.10 -40.65 3.30 l-30.65 0.20 0 -8.75z"/>
 </g>
 <g fill="#ffedcf">
  <path d="M115.60 28.90 c0.80 -2.55 2.20 -6.65 3.10 -9.15 l1.65 -4.50 28.20 0 28.20 0 0.15 7.50 c0.10 4.15 0 8.25 -0.15 9.15 l-0.30 1.60 -31.15 0 -31.10 0 1.40 -4.60z"/>
 </g>
</svg>